<svg data-v-423bf9ae="" xmlns="http://www.w3.org/2000/svg" viewBox="0 0 394 90" class="iconLeft"><!----><!----><!----><g data-v-423bf9ae="" id="d1414c3b-6790-414b-b496-02613442333e" fill="black" transform="matrix(5.0205551736259215,0,0,5.0205551736259215,116.068892610387,-2.9233799657562685)"><path d="M1.34 3.67L0.35 4.48L0.35 12.71L5.08 12.70L6.00 11.15L6.00 11.15Q4.99 11.64 1.60 11.47L1.60 11.47L1.60 8.38L3.97 8.38L4.70 7.25L1.64 7.25L1.64 4.79L4.81 4.79L5.65 3.66L1.34 3.67ZM10.63 4.13L11.96 3.57L11.96 12.28L10.65 12.78L10.65 11.95L10.65 11.95Q9.38 13.13 8.07 12.57L8.07 12.57L8.07 12.57Q6.75 12.02 6.34 10.68L6.34 10.68L6.34 10.68Q5.93 9.34 6.80 8.09L6.80 8.09L6.80 8.09Q7.66 6.84 8.72 6.55L8.72 6.55L8.72 6.55Q9.78 6.25 10.64 6.77L10.64 6.77L10.63 4.13ZM8.98 7.36L8.98 7.36L8.98 7.36Q8.29 7.26 7.66 7.98L7.66 7.98L7.66 7.98Q7.04 8.70 7.41 9.80L7.41 9.80L7.41 9.80Q7.78 10.90 8.69 11.40L8.69 11.40L8.69 11.40Q9.60 11.89 10.64 11.48L10.64 11.48L10.64 7.88L10.19 8.18L10.19 8.18Q9.68 7.45 8.98 7.36ZM16.71 12.70L17.98 12.19L17.98 6.49L16.65 7.03L16.65 11.16L16.65 11.16Q16.15 11.79 15.29 11.74L15.29 11.74L15.29 11.74Q14.42 11.69 14.34 10.73L14.34 10.73L14.35 6.51L13.05 7.17L13.05 10.96L13.05 10.96Q13.05 11.91 13.71 12.35L13.71 12.35L13.71 12.35Q14.38 12.80 15.00 12.68L15.00 12.68L15.00 12.68Q15.63 12.56 16.71 11.48L16.71 11.48L16.71 12.70ZM19.93 3.64L18.99 4.74L23.18 4.74L23.18 4.74Q23.11 4.88 23.11 5.18L23.11 5.18L23.12 9.62L23.12 9.62Q23.06 11.60 22.40 11.73L22.40 11.73L22.40 11.73Q21.75 11.85 21.16 11.59L21.16 11.59L21.16 11.59Q20.58 11.33 20.12 10.60L20.12 10.60L20.12 10.60Q19.66 9.86 19.63 9.37L19.63 9.37L18.63 10.25L18.63 10.25Q18.96 11.63 19.80 12.27L19.80 12.27L19.80 12.27Q20.64 12.90 21.41 12.70L21.41 12.70L21.41 12.70Q22.17 12.50 23.25 11.50L23.25 11.50L23.25 11.50Q24.33 10.49 24.32 9.55L24.32 9.55L24.32 9.55Q24.25 3.84 24.52 3.64L24.52 3.64L19.93 3.64ZM28.23 6.48L28.23 6.48L28.23 6.48Q27.11 6.51 26.40 7.03L26.40 7.03L26.40 7.03Q25.70 7.55 25.38 8.19L25.38 8.19L25.38 8.19Q25.05 8.84 25.03 9.76L25.03 9.76L25.03 9.76Q25.01 10.68 25.70 11.62L25.70 11.62L25.70 11.62Q26.39 12.56 27.40 12.71L27.40 12.71L27.40 12.71Q28.40 12.85 29.26 12.33L29.26 12.33L29.26 12.33Q30.12 11.80 30.56 11.12L30.56 11.12L30.56 11.12Q30.99 10.45 31.01 9.35L31.01 9.35L31.01 9.35Q31.03 8.26 30.18 7.36L30.18 7.36L30.18 7.36Q29.34 6.46 28.23 6.48ZM27.93 7.44L27.93 7.44L27.93 7.44Q28.97 7.82 29.40 8.91L29.40 8.91L29.40 8.91Q29.83 9.99 29.77 10.67L29.77 10.67L29.77 10.67Q29.72 11.34 29.15 11.71L29.15 11.71L29.15 11.71Q28.57 12.08 27.63 11.56L27.63 11.56L27.63 11.56Q26.68 11.05 26.38 9.91L26.38 9.91L26.38 9.91Q26.07 8.77 26.48 7.92L26.48 7.92L26.48 7.92Q26.89 7.07 27.93 7.44ZM37.20 12.19L37.20 12.19L37.20 6.49L35.88 7.03L35.88 11.16L35.88 11.16Q35.37 11.79 34.41 11.74L34.41 11.74L34.41 11.74Q33.44 11.69 33.36 10.73L33.36 10.73L33.37 6.51L32.07 7.17L32.07 10.96L32.07 10.96Q32.07 11.91 32.73 12.35L32.73 12.35L32.73 12.35Q33.39 12.80 34.12 12.68L34.12 12.68L34.12 12.68Q34.85 12.56 35.94 11.48L35.94 11.48L35.94 13.11L35.94 13.11Q35.98 14.06 35.64 14.39L35.64 14.39L35.64 14.39Q35.29 14.72 34.48 14.63L34.48 14.63L34.48 14.63Q33.67 14.53 32.85 13.36L32.85 13.36L31.99 14.57L31.99 14.57Q33.88 16.19 35.55 15.05L35.55 15.05L35.55 15.05Q37.21 13.90 37.20 12.19ZM38.64 3.65L37.90 4.88L41.61 4.87L40.79 5.27L40.78 12.71L42.01 12.33L42.01 4.88L44.28 4.87L45.07 3.65L38.64 3.65ZM46.28 6.48L46.28 6.48L46.28 6.48Q45.17 6.51 44.46 7.03L44.46 7.03L44.46 7.03Q43.75 7.55 43.43 8.19L43.43 8.19L43.43 8.19Q43.11 8.84 43.08 9.76L43.08 9.76L43.08 9.76Q43.06 10.68 43.75 11.62L43.75 11.62L43.75 11.62Q44.44 12.56 45.45 12.71L45.45 12.71L45.45 12.71Q46.46 12.85 47.31 12.33L47.31 12.33L47.31 12.33Q48.17 11.80 48.61 11.12L48.61 11.12L48.61 11.12Q49.05 10.45 49.06 9.35L49.06 9.35L49.06 9.35Q49.08 8.26 48.24 7.36L48.24 7.36L48.24 7.36Q47.39 6.46 46.28 6.48ZM45.98 7.44L45.98 7.44L45.98 7.44Q47.02 7.82 47.45 8.91L47.45 8.91L47.45 8.91Q47.88 9.99 47.82 10.67L47.82 10.67L47.82 10.67Q47.77 11.34 47.20 11.71L47.20 11.71L47.20 11.71Q46.63 12.08 45.68 11.56L45.68 11.56L45.68 11.56Q44.73 11.05 44.43 9.91L44.43 9.91L44.43 9.91Q44.13 8.77 44.53 7.92L44.53 7.92L44.53 7.92Q44.94 7.07 45.98 7.44ZM55.25 12.19L55.25 12.19L55.25 6.49L53.93 7.03L53.93 11.16L53.93 11.16Q53.42 11.79 52.46 11.74L52.46 11.74L52.46 11.74Q51.50 11.69 51.41 10.73L51.41 10.73L51.42 6.51L50.12 7.17L50.12 10.96L50.12 10.96Q50.12 11.91 50.78 12.35L50.78 12.35L50.78 12.35Q51.45 12.80 52.18 12.68L52.18 12.68L52.18 12.68Q52.90 12.56 53.99 11.48L53.99 11.48L53.99 13.11L53.99 13.11Q54.03 14.06 53.69 14.39L53.69 14.39L53.69 14.39Q53.35 14.72 52.54 14.63L52.54 14.63L52.54 14.63Q51.73 14.53 50.90 13.36L50.90 13.36L50.05 14.57L50.05 14.57Q51.93 16.19 53.60 15.05L53.60 15.05L53.60 15.05Q55.27 13.90 55.25 12.19Z"></path></g><!----><g data-v-423bf9ae="" id="8b981b77-ed34-4a9d-906c-ef68be7371a4" transform="matrix(1.9565217391304348,0,0,1.9565217391304348,-13.608695652173914,-17.608695652173914)" stroke="none" fill="black"><path d="M56 31h-5v-5a1 1 0 0 0-1-1h-6a1 1 0 0 0-1 1v5H33V16a1 1 0 0 0-1-1H12a1 1 0 0 0-1 1v27H8a1 1 0 1 0 0 2h3v3a1 1 0 0 0 1 1h3.08c.488 3.387 3.4 6 6.92 6s6.432-2.613 6.92-6h10.16c.488 3.387 3.401 6 6.92 6 3.859 0 7-3.141 7-7s-3.141-7-7-7c-3.519 0-6.432 2.613-6.92 6H28.92c-.488-3.387-3.4-6-6.92-6s-6.432 2.613-6.92 6H13V17h18v15a1 1 0 0 0 1 1h12a1 1 0 0 0 1-1v-5h4v5a1 1 0 0 0 1 1h5v14h-1a1 1 0 1 0 0 2h2a1 1 0 0 0 1-1V32a1 1 0 0 0-1-1zM46 43c2.757 0 5 2.243 5 5s-2.243 5-5 5-5-2.243-5-5 2.243-5 5-5zm-24 0c2.757 0 5 2.243 5 5s-2.243 5-5 5-5-2.243-5-5 2.243-5 5-5z"></path><path d="M26 21h-8a1 1 0 0 0-1 1v8a1 1 0 0 0 1 1h8a1 1 0 0 0 1-1v-8a1 1 0 0 0-1-1zm-1 8h-6v-6h6v6zM10 11h24a1 1 0 1 0 0-2H10a1 1 0 0 0 0 2z"></path></g><!----></svg>